<svg version="1.1" id="Layer_1" xmlns="http://www.w3.org/2000/svg" xmlns:xlink="http://www.w3.org/1999/xlink" x="0px" y="0px"
	 width="100%" viewBox="0 0 872 350" enable-background="new 0 0 872 350" xml:space="preserve">
<path fill="#FEFFFF" opacity="1.000000" stroke="none" 
	d="
M561.000000,351.000000 
	C374.000000,351.000000 187.500000,351.000000 1.000000,351.000000 
	C1.000000,234.333328 1.000000,117.666664 1.000000,1.000000 
	C291.666656,1.000000 582.333313,1.000000 873.000000,1.000000 
	C873.000000,117.666664 873.000000,234.333328 873.000000,351.000000 
	C769.166687,351.000000 665.333313,351.000000 561.000000,351.000000 
M291.469757,167.971848 
	C282.343201,175.476959 273.332458,183.128769 264.059204,190.447998 
	C253.746918,198.587311 240.767029,199.124954 229.594055,192.153290 
	C213.242813,181.950470 196.967392,171.625992 180.601532,161.446793 
	C168.142426,153.697479 151.922134,155.927811 142.407669,166.727814 
	C127.783478,183.327972 113.207565,199.971863 98.787956,216.749146 
	C97.254639,218.533188 96.156136,221.319489 96.120308,223.660187 
	C95.885818,238.982651 95.982506,254.310486 96.003830,269.636505 
	C96.029648,288.189941 108.802399,300.988159 127.358864,300.993561 
	C189.829193,301.011658 252.299530,301.012482 314.769867,300.992981 
	C333.055023,300.987274 345.976349,288.181061 345.989166,270.007690 
	C346.022705,222.530258 346.002777,175.052780 345.986908,127.575340 
	C345.986511,126.354912 345.786316,125.134560 345.627869,123.327919 
	C327.399658,138.341949 309.699768,152.920822 291.469757,167.971848 
M95.999672,206.349533 
	C95.999672,208.842606 95.999672,211.335693 95.999672,215.111740 
	C110.860497,198.152115 124.689842,182.399094 138.485641,166.616760 
	C151.035828,152.259384 168.015396,149.853607 184.162048,160.085007 
	C199.616318,169.877716 215.096054,179.631302 230.630920,189.295456 
	C241.465805,196.035767 253.150940,195.562393 262.691315,187.742477 
	C289.602386,165.684357 316.424286,143.516891 343.160339,121.247284 
	C344.663757,119.995041 345.828247,117.454216 345.875793,115.482391 
	C346.136810,104.660385 346.006653,93.828766 345.998627,83.000465 
	C345.984314,63.665115 333.437469,51.006840 314.234009,51.003487 
	C252.096161,50.992641 189.958328,50.993576 127.820480,51.003422 
	C108.594757,51.006470 96.007874,63.647823 96.002998,82.946617 
	C95.992691,123.761017 95.999741,164.575424 95.999672,206.349533 
M373.159088,88.730431 
	C365.698395,102.147621 366.976624,116.363068 369.927643,130.484039 
	C371.745117,139.180847 377.587982,145.602356 386.558655,146.098312 
	C394.716888,146.549332 400.009552,150.457001 405.136414,155.719360 
	C405.790253,156.390457 406.657623,156.853455 407.493103,157.461670 
	C410.184814,154.970551 412.701324,152.641586 415.366547,150.174973 
	C412.271118,147.266632 409.533936,144.694931 407.810425,143.075592 
	C410.291687,137.016083 413.761932,131.877426 414.315918,126.441559 
	C415.251526,117.260719 415.047882,107.811737 414.008789,98.624168 
	C412.955505,89.310890 407.288940,82.594666 397.839050,80.489182 
	C388.515381,78.411812 379.912384,80.017746 373.159088,88.730431 
M453.496918,79.820328 
	C452.332733,79.864815 451.162537,79.848709 450.005341,79.963501 
	C441.663147,80.790977 435.394562,86.007004 433.518890,93.647346 
	C431.630402,101.339691 434.404327,108.121979 441.764282,112.791344 
	C444.967621,114.823662 448.585144,116.193230 451.954498,117.977264 
	C454.432251,119.289238 457.071686,120.480865 459.175415,122.271011 
	C462.365143,124.985260 462.365051,128.777557 460.999786,132.394592 
	C459.640228,135.996490 456.417450,136.293579 453.077972,136.071426 
	C446.409271,135.627808 445.651855,130.488373 444.832367,125.526703 
	C440.522247,125.526703 436.408386,125.526703 432.308533,125.526703 
	C431.609406,141.586426 447.052521,151.377213 463.235291,145.382233 
	C470.586243,142.659042 474.704437,136.858032 474.849213,129.063293 
	C475.043335,118.610146 468.932037,112.642723 460.239777,108.526405 
	C456.940735,106.964096 453.529724,105.620903 450.309692,103.913887 
	C447.073975,102.198570 445.370605,99.521942 446.408600,95.664810 
	C447.368256,92.098839 449.881897,90.427917 453.381256,90.390266 
	C457.388641,90.347145 459.938354,92.445412 460.843384,96.388107 
	C461.090973,97.466484 461.171204,98.583275 461.334839,99.728546 
	C465.767670,99.728546 469.882996,99.728546 473.993256,99.728546 
	C474.186157,87.867363 466.770874,80.410042 453.496918,79.820328 
M665.023926,181.655365 
	C664.913330,180.416336 664.802734,179.177322 664.706299,178.096649 
	C662.490234,178.096649 660.693176,178.096649 658.366089,178.096649 
	C658.366089,184.466492 658.366089,190.651428 658.366089,196.836380 
	C654.960205,192.267670 652.173340,187.621124 650.221252,182.646957 
	C648.472778,178.191727 645.750000,177.020844 641.330505,178.257904 
	C641.330505,189.422760 641.330505,200.639023 641.330505,211.742065 
	C643.544739,211.742065 645.466370,211.742065 647.965698,211.742065 
	C647.965698,205.359283 647.965698,199.243179 647.965698,193.127090 
	C651.163879,197.721024 653.910156,202.265274 655.794434,207.142563 
	C657.584045,211.774826 660.322815,213.028931 665.023926,211.558609 
	C665.023926,201.877243 665.023926,192.250412 665.023926,181.655365 
M453.950195,206.656815 
	C455.493469,211.082840 458.044678,213.560196 462.890015,211.480652 
	C462.890015,200.275223 462.890015,189.203705 462.890015,178.266083 
	C460.692078,178.266083 458.803864,178.266083 456.632172,178.266083 
	C456.632172,184.841599 456.632172,191.064880 456.632172,197.288162 
	C453.355164,192.578522 450.514252,187.766006 448.446655,182.641479 
	C446.664764,178.224899 444.060425,176.844696 439.500427,178.401443 
	C439.500427,189.423111 439.500427,200.504211 439.500427,211.707840 
	C441.762085,211.707840 443.793152,211.707840 446.105103,211.707840 
	C446.105103,205.171692 446.105103,198.937531 446.105103,191.170349 
	C449.067719,196.991837 451.351074,201.478622 453.950195,206.656815 
M446.786011,230.153809 
	C442.185364,230.153809 437.584747,230.153809 432.881714,230.153809 
	C432.881714,241.517410 432.881714,252.616882 432.881714,263.682068 
	C435.153046,263.682068 437.214844,263.682068 439.520386,263.682068 
	C439.520386,262.045135 439.376465,260.706055 439.550720,259.409760 
	C439.901245,256.801910 440.425201,254.217361 440.877594,251.623215 
	C442.495819,253.814285 444.828613,255.785873 445.583008,258.242249 
	C447.138336,263.306641 449.835358,265.272003 455.325836,263.507721 
	C454.365814,261.226044 453.413147,258.965027 452.463013,256.702972 
	C451.506958,254.426910 450.553467,252.149780 449.650543,249.996490 
	C456.934448,242.523804 455.955963,234.186768 446.786011,230.153809 
M533.200806,180.962372 
	C532.813477,174.927658 528.921143,178.924179 526.262939,178.032593 
	C526.262939,185.091324 526.451294,191.562820 526.186035,198.015701 
	C526.046753,201.404984 528.091858,206.717087 521.857788,206.652298 
	C516.005737,206.591461 517.946106,201.498322 517.816345,198.259583 
	C517.551575,191.651978 517.737061,185.026352 517.737061,178.157318 
	C515.258911,178.157318 513.175415,178.157318 510.884583,178.157318 
	C510.884583,186.233566 510.739319,194.196854 510.928497,202.152191 
	C511.092957,209.068924 515.115051,212.605347 522.179565,212.526428 
	C529.201294,212.448013 533.029419,208.828812 533.169495,201.828400 
	C533.302490,195.182480 533.199890,188.531845 533.200806,180.962372 
M408.415680,211.291489 
	C417.883392,214.102615 424.638763,210.826050 425.811371,202.288132 
	C426.461975,197.551224 426.370148,192.604691 425.829163,187.841644 
	C425.272156,182.937027 422.532410,179.198410 417.356110,177.892365 
	C412.406281,176.643417 408.071442,177.641235 404.785553,181.703690 
	C399.257782,188.537766 400.967926,205.164581 408.415680,211.291489 
M385.818207,261.193390 
	C389.864868,254.373215 388.370148,248.699890 381.510132,244.992828 
	C379.181122,243.734268 376.467773,242.931870 374.589813,241.203949 
	C373.683167,240.369781 374.304810,237.874619 374.234467,236.131546 
	C376.026520,236.129166 378.000641,235.670227 379.546021,236.286469 
	C380.559814,236.690750 380.953979,238.648926 381.534607,239.740097 
	C383.712250,239.740097 385.676117,239.740097 388.097046,239.740097 
	C387.562714,237.864868 387.318756,236.213791 386.637024,234.769333 
	C384.796326,230.869293 380.029633,228.825989 375.213928,229.502625 
	C370.367767,230.183533 367.128052,232.756577 366.310394,237.570419 
	C365.503174,242.323273 368.137787,245.440216 372.215332,247.491592 
	C373.844666,248.311295 375.452087,249.192474 377.137421,249.878815 
	C379.902527,251.004913 381.838196,252.807922 380.907379,255.903748 
	C380.542236,257.118103 378.843597,258.584991 377.593109,258.753113 
	C374.278870,259.198578 372.949097,256.900543 372.524811,253.923279 
	C372.489685,253.676849 372.077026,253.484207 372.023590,253.435196 
	C369.905609,253.435196 367.980621,253.435196 365.998993,253.435196 
	C365.620117,258.042999 367.437500,261.261902 371.237915,263.039703 
	C376.064850,265.297699 380.883392,265.216156 385.818207,261.193390 
M571.346802,235.744720 
	C573.799255,235.744720 576.251709,235.744720 578.707642,235.744720 
	C578.707642,233.505478 578.707642,231.790878 578.707642,230.248718 
	C572.160706,230.248718 565.940369,230.248718 559.759338,230.248718 
	C559.759338,241.674179 559.759338,252.743591 559.759338,263.765900 
	C566.350281,263.765900 572.620544,263.765900 579.076965,263.765900 
	C578.988525,261.885956 578.912903,260.278046 578.811646,258.124878 
	C574.515869,258.124878 570.447327,258.124878 566.479126,258.124878 
	C566.479126,254.948654 566.479126,252.341324 566.479126,249.181198 
	C570.093811,249.181198 573.467468,249.181198 577.097717,249.181198 
	C576.974182,247.038422 576.884155,245.476868 576.787048,243.792603 
	C574.727417,243.792603 573.065857,243.826355 571.406250,243.782928 
	C569.806274,243.741074 568.208374,243.619507 566.422852,243.522842 
	C566.422852,240.860367 566.422852,238.592407 566.422852,236.347610 
	C566.772400,236.161392 567.054688,235.897278 567.358032,235.870316 
	C568.350769,235.782028 569.351196,235.780045 571.346802,235.744720 
M605.291443,230.004166 
	C598.240601,228.566422 592.623596,230.861145 591.087952,235.806747 
	C589.370483,241.337921 591.624329,245.111877 598.621765,248.485916 
	C600.266174,249.278839 602.269714,249.806076 603.383728,251.085983 
	C604.513428,252.383926 605.195923,254.464127 605.188110,256.197723 
	C605.184021,257.100189 603.108032,258.866394 602.251831,258.707977 
	C600.532593,258.389923 598.884155,257.171173 597.461731,256.011200 
	C596.859253,255.519791 596.900391,254.239197 596.696289,253.490875 
	C594.398010,253.490875 592.336609,253.490875 590.246338,253.490875 
	C591.053650,260.716980 594.110107,263.880920 600.495178,264.407776 
	C606.326416,264.888947 610.765198,262.394226 612.050476,257.913330 
	C613.660461,252.300217 611.362061,247.886276 605.139771,244.713470 
	C603.372681,243.812408 601.330750,243.268814 599.857422,242.033493 
	C598.775391,241.126312 597.855530,239.333191 597.916443,237.982452 
	C597.962158,236.969345 599.657776,235.279739 600.664917,235.245407 
	C602.014832,235.199341 603.547241,236.287643 604.728210,237.230835 
	C605.344788,237.723267 605.376587,238.947876 605.646240,239.762299 
	C607.938232,239.762299 609.897461,239.762299 611.861267,239.762299 
	C611.678711,234.530746 610.937622,233.331070 605.291443,230.004166 
M476.204895,201.599457 
	C476.438293,208.220123 479.249756,211.426682 485.560638,212.269928 
	C491.554962,213.070877 496.311066,210.675842 497.808350,206.102249 
	C499.551239,200.778519 497.330505,196.023361 491.583801,192.951263 
	C489.833984,192.015839 487.775177,191.528397 486.256958,190.330124 
	C485.000458,189.338379 483.676331,187.625366 483.625793,186.188156 
	C483.590332,185.181412 485.695160,183.215973 486.761139,183.271500 
	C488.179382,183.345367 489.592377,184.880402 490.851715,185.968185 
	C491.348175,186.396988 491.424744,187.311920 491.575714,187.702927 
	C493.971954,187.702927 495.914642,187.702927 498.262787,187.702927 
	C497.799683,185.948944 497.599060,184.450424 497.015747,183.119705 
	C495.320221,179.251801 490.366272,176.723343 485.775848,177.440216 
	C481.421204,178.120270 477.830719,179.888870 476.759216,184.740112 
	C475.643829,189.790039 478.028351,193.062881 482.153931,195.406921 
	C483.732300,196.303680 485.414703,197.037842 487.100647,197.720200 
	C490.047821,198.912994 492.057800,200.858185 491.032074,204.153229 
	C490.670410,205.314896 488.822235,206.658386 487.553406,206.767899 
	C484.217438,207.055893 482.994904,204.709122 482.711578,201.711029 
	C482.693451,201.519455 482.202789,201.372559 481.902771,201.186798 
	C480.264404,201.186798 478.600494,201.186798 476.204895,201.599457 
M608.651184,191.026108 
	C606.504578,197.892990 604.357910,204.759872 602.194458,211.680435 
	C604.902161,211.680435 607.146301,211.680435 609.274536,211.680435 
	C610.073425,209.224655 610.764526,207.100174 611.359070,205.272644 
	C614.807678,205.272644 617.755737,205.272644 620.540283,205.272644 
	C621.295776,207.702927 621.963806,209.851730 622.552429,211.745117 
	C625.076355,211.745117 627.151489,211.745117 629.652466,211.745117 
	C626.021118,200.230438 622.506287,189.085312 619.074097,178.201996 
	C616.590210,178.201996 614.661560,178.201996 612.620850,178.201996 
	C611.335510,182.373917 610.119751,186.319748 608.651184,191.026108 
M694.088806,204.863724 
	C689.546082,208.079849 685.946899,207.246719 685.386780,202.377640 
	C684.821350,197.463196 684.877258,192.387848 685.468933,187.480408 
	C685.664307,185.859955 688.175171,183.875580 690.006348,183.330170 
	C691.154114,182.988342 693.188721,184.830383 694.472290,186.060913 
	C695.151917,186.712463 695.076843,188.151184 695.276550,188.965759 
	C697.640137,188.965759 699.694336,188.965759 701.781677,188.965759 
	C700.271484,180.460541 696.775208,177.117279 689.880615,177.274536 
	C683.401611,177.422348 678.766174,181.802261 678.263672,189.209900 
	C677.929932,194.128876 678.074646,199.227829 679.014893,204.049301 
	C680.260010,210.434357 685.404541,213.238876 692.258362,212.260651 
	C698.448425,211.377182 701.371704,207.776367 701.389771,200.800339 
	C698.639038,201.059357 694.877930,198.832947 694.088806,204.863724 
M541.212585,241.252777 
	C543.108582,241.252777 545.004517,241.252777 546.951355,241.252777 
	C545.730774,232.947525 542.200195,229.404388 535.568481,229.283295 
	C529.068420,229.164612 524.520996,232.909225 523.704834,240.218460 
	C523.141479,245.263031 523.291626,250.533859 524.094604,255.547974 
	C525.136780,262.056458 530.180176,265.096405 536.968445,264.300934 
	C543.437134,263.542969 546.621582,259.780731 546.591919,252.921082 
	C544.496765,252.921082 542.401672,252.921082 540.066650,252.921082 
	C540.192383,256.680603 538.798279,259.035339 534.891785,258.773560 
	C530.849243,258.502594 530.388428,255.312317 530.196899,252.301208 
	C529.975769,248.824265 530.003601,245.313049 530.205017,241.833038 
	C530.392639,238.592346 530.969666,235.319977 535.231995,235.070023 
	C539.407104,234.825165 539.765869,238.097244 541.212585,241.252777 
M389.172424,185.387253 
	C386.761658,179.446930 383.179779,176.950821 377.563141,177.297089 
	C371.735535,177.656357 367.651855,180.825104 366.819427,187.159348 
	C366.116943,192.505005 366.134247,198.124298 366.962311,203.446762 
	C368.001801,210.128082 372.881592,213.053268 379.730408,212.326401 
	C386.286987,211.630554 389.334839,208.116470 389.523163,200.888641 
	C387.428894,200.888641 385.339386,200.888641 383.043304,200.888641 
	C382.974152,204.464020 381.791107,207.032532 377.830292,206.779221 
	C373.803802,206.521667 373.185181,203.427597 373.102020,200.351669 
	C372.985474,196.038986 372.806671,191.643494 373.531708,187.434525 
	C373.817963,185.772842 376.385040,183.505630 378.056488,183.377411 
	C379.560699,183.262039 381.335754,185.617294 382.828583,187.052139 
	C383.283966,187.489838 383.200073,188.488541 383.346222,189.153152 
	C385.665009,189.153152 387.626831,189.153152 389.908875,189.153152 
	C389.723053,187.988403 389.573029,187.047958 389.172424,185.387253 
M487.062042,244.667892 
	C488.438141,239.922012 489.814240,235.176117 491.276184,230.134277 
	C488.668945,230.134277 486.400299,230.134277 483.931152,230.134277 
	C482.077240,237.606079 480.234558,245.032593 478.391876,252.459122 
	C478.074707,252.434738 477.757507,252.410355 477.440338,252.385986 
	C475.607483,244.952774 473.774658,237.519562 471.980225,230.242142 
	C469.394745,230.242142 467.192322,230.242142 464.676025,230.242142 
	C467.991302,241.707809 471.192871,252.780197 474.369965,263.767944 
	C476.978729,263.767944 479.252014,263.767944 481.503235,263.767944 
	C483.349945,257.511261 485.128052,251.487000 487.062042,244.667892 
M407.852753,238.433044 
	C408.802429,237.529663 409.676697,235.966034 410.716003,235.847351 
	C413.771820,235.498367 416.893158,235.722916 420.118652,235.722916 
	C420.118652,233.520996 420.118652,231.919449 420.118652,230.155762 
	C413.691864,230.155762 407.467224,230.155762 401.113190,230.155762 
	C401.113190,241.470871 401.113190,252.541245 401.113190,263.776306 
	C407.542633,263.776306 413.767914,263.776306 419.920074,263.776306 
	C419.920074,261.818329 419.920074,260.108032 419.920074,258.095490 
	C415.748596,258.095490 411.976501,258.095490 408.121948,258.095490 
	C408.121948,255.045105 408.121948,252.310013 408.121948,249.077911 
	C411.601532,249.077911 414.834106,249.077911 418.123596,249.077911 
	C418.123596,247.125488 418.123596,245.683426 418.123596,243.765930 
	C414.697906,243.765930 411.459930,243.765930 408.049683,243.765930 
	C407.969757,241.997818 407.910858,240.695404 407.852753,238.433044 
M574.794922,177.892441 
	C569.624756,177.406967 571.469055,180.743134 571.539124,183.563446 
	C574.404968,183.706894 576.973389,183.835464 579.841125,183.979004 
	C579.841125,193.591812 579.841125,202.686218 579.841125,211.884247 
	C582.144470,211.884247 584.114075,211.884247 586.625183,211.884247 
	C586.625183,202.527100 586.625183,193.300888 586.625183,183.572113 
	C589.720581,183.572113 592.277039,183.572113 594.819702,183.572113 
	C594.819702,181.446335 594.819702,179.845261 594.819702,177.892365 
	C588.320801,177.892365 582.026001,177.892365 574.794922,177.892441 
M715.303101,186.213562 
	C719.268982,194.267487 722.558167,202.485519 720.785889,211.770859 
	C723.572876,211.770859 725.642883,211.770859 728.382690,211.770859 
	C725.406738,199.032867 733.273865,189.210144 736.820312,178.133911 
	C734.199402,178.133911 731.915833,178.133911 729.555054,178.133911 
	C728.700134,180.633240 727.911743,182.965912 727.103821,185.291779 
	C726.335083,187.504623 725.545898,189.710388 724.462524,192.777588 
	C723.145752,189.024506 722.152710,186.228378 721.183289,183.424088 
	C718.994507,177.092667 718.999268,177.091034 712.197205,178.627243 
	C713.143677,180.924088 714.085144,183.208817 715.303101,186.213562 
M554.450806,206.143036 
	C554.154419,204.434067 553.623047,202.727966 553.602051,201.015610 
	C553.508667,193.413452 553.561584,185.809494 553.561584,178.207977 
	C550.995422,178.207977 548.935669,178.207977 546.874573,178.207977 
	C546.874573,189.609848 546.874573,200.694595 546.874573,211.784393 
	C553.201538,211.784393 559.294739,211.784393 565.773865,211.784393 
	C565.661316,209.824219 565.564453,208.137604 565.455444,206.239288 
	C561.729065,206.239288 558.584106,206.239288 554.450806,206.143036 
M503.049438,246.500549 
	C503.049438,252.264603 503.049438,258.028656 503.049438,263.678711 
	C505.657166,263.678711 507.708435,263.678711 509.674683,263.678711 
	C509.674683,252.272507 509.674683,241.206879 509.674683,230.251740 
	C507.340546,230.251740 505.288818,230.251740 503.049438,230.251740 
	C503.049438,235.563339 503.049438,240.533051 503.049438,246.500549 
z"/>
<path fill="#010101" opacity="1.000000" stroke="none" 
	d="
M291.734802,167.735779 
	C309.699768,152.920822 327.399658,138.341949 345.627869,123.327919 
	C345.786316,125.134560 345.986511,126.354912 345.986908,127.575340 
	C346.002777,175.052780 346.022705,222.530258 345.989166,270.007690 
	C345.976349,288.181061 333.055023,300.987274 314.769867,300.992981 
	C252.299530,301.012482 189.829193,301.011658 127.358864,300.993561 
	C108.802399,300.988159 96.029648,288.189941 96.003830,269.636505 
	C95.982506,254.310486 95.885818,238.982651 96.120308,223.660187 
	C96.156136,221.319489 97.254639,218.533188 98.787956,216.749146 
	C113.207565,199.971863 127.783478,183.327972 142.407669,166.727814 
	C151.922134,155.927811 168.142426,153.697479 180.601532,161.446793 
	C196.967392,171.625992 213.242813,181.950470 229.594055,192.153290 
	C240.767029,199.124954 253.746918,198.587311 264.059204,190.447998 
	C273.332458,183.128769 282.343201,175.476959 291.734802,167.735779 
M162.016876,253.568405 
	C168.195389,256.432709 174.471237,255.461197 176.118378,251.385468 
	C177.801758,247.220093 175.619507,244.394882 168.447174,241.451797 
	C168.293915,241.388916 168.114258,241.345581 168.001083,241.236771 
	C166.898071,240.176498 165.723267,239.167267 164.810547,237.960709 
	C164.687439,237.797958 165.946381,235.997406 166.483795,236.037872 
	C168.125809,236.161560 169.766342,236.709900 171.334915,237.289398 
	C172.899948,237.867554 174.377350,238.682968 176.667816,239.757919 
	C175.641846,233.193405 172.071579,231.807617 167.498077,232.000473 
	C163.982483,232.148727 160.727249,233.218231 159.993271,237.170776 
	C159.067322,242.157104 162.897018,243.647736 166.528091,245.105362 
	C166.988235,245.290070 167.544662,245.335770 167.914551,245.626495 
	C169.254044,246.679276 170.598404,247.750198 171.728271,249.005646 
	C171.834961,249.124176 170.420319,251.310532 169.763474,251.283539 
	C167.958130,251.209381 166.113983,250.632034 164.410385,249.943909 
	C162.770432,249.281464 161.287003,248.231537 159.734787,247.351868 
	C159.392303,247.781708 159.049805,248.211563 158.707306,248.641403 
	C159.621658,250.111801 160.536026,251.582199 162.016876,253.568405 
M202.391617,246.076859 
	C207.206985,244.610001 208.058578,248.579269 209.895554,251.392303 
	C210.924591,252.968094 212.440247,254.226135 213.736649,255.627335 
	C214.143738,255.280853 214.550812,254.934372 214.957886,254.587891 
	C213.350647,251.556992 211.743393,248.526077 210.073730,245.377457 
	C213.655487,243.149094 215.153046,240.051086 213.537338,236.045425 
	C211.985092,232.197113 206.860733,231.103607 198.329712,232.746048 
	C198.329712,239.272980 198.273514,245.896912 198.398895,252.517395 
	C198.415054,253.371170 199.371918,254.207123 199.893005,255.051346 
	C200.485733,254.110428 201.421341,253.228500 201.595566,252.215607 
	C201.902115,250.433334 201.743271,248.570999 202.391617,246.076859 
M183.428192,247.505020 
	C183.057068,243.774597 185.833511,244.865356 187.777435,244.651688 
	C189.654709,244.445343 191.527466,244.198013 193.402191,243.968689 
	C193.325760,243.292068 193.249329,242.615463 193.172882,241.938843 
	C189.975662,241.938843 186.778442,241.938843 183.559357,241.938843 
	C183.559357,239.386368 183.559357,237.417770 183.559357,235.277969 
	C187.403946,234.976395 191.132462,234.683914 194.860977,234.391449 
	C194.791153,233.770264 194.721313,233.149078 194.651489,232.527893 
	C190.021500,232.527893 185.391510,232.527893 180.465347,232.527893 
	C180.465347,239.938568 180.465347,247.302490 180.465347,254.497452 
	C185.444412,254.497452 190.170441,254.497452 194.896469,254.497452 
	C194.917953,253.910263 194.939453,253.323090 194.960938,252.735901 
	C192.408585,252.604935 189.840790,252.238205 187.307831,252.403931 
	C184.289581,252.601410 182.895935,251.639435 183.428192,247.505020 
M262.984222,247.894165 
	C262.018921,248.537369 261.076172,249.218140 260.083282,249.815460 
	C258.366028,250.848495 256.427948,252.850861 254.930573,252.572708 
	C253.083069,252.229538 250.595627,250.218918 250.164490,248.486023 
	C249.396576,245.399658 249.403702,241.836319 250.195175,238.757416 
	C250.638474,237.032990 253.158142,235.072617 255.021271,234.728226 
	C256.492767,234.456268 258.427979,236.430664 260.084015,237.518936 
	C261.068970,238.166229 261.912170,239.029205 263.872742,240.685120 
	C263.085083,234.942795 260.926086,232.465973 256.738159,232.004639 
	C252.279938,231.513504 248.460770,233.041748 247.258942,237.456070 
	C246.335770,240.846909 246.313919,244.700623 246.827515,248.211517 
	C247.508621,252.867569 250.630722,255.381058 255.602493,255.250824 
	C260.291931,255.127945 263.072906,252.990540 262.984222,247.894165 
M271.042572,245.605789 
	C274.361786,244.969894 277.681000,244.334000 281.000214,243.698105 
	C280.949554,243.187408 280.898895,242.676712 280.848236,242.166016 
	C277.684570,242.166016 274.520874,242.166016 271.360291,242.166016 
	C271.360291,239.341263 271.360291,237.162491 271.360291,235.297287 
	C275.248779,234.899521 278.712708,234.545181 282.176605,234.190842 
	C282.094727,233.602051 282.012848,233.013245 281.930969,232.424454 
	C277.413300,232.424454 272.895660,232.424454 268.118225,232.424454 
	C268.118225,239.898651 268.118225,247.268524 268.118225,254.704834 
	C272.942139,254.704834 277.602661,254.704834 282.263184,254.704834 
	C282.340576,254.121338 282.417969,253.537857 282.495361,252.954361 
	C278.787811,252.657425 275.080292,252.360489 270.996429,252.033401 
	C270.996429,250.159012 270.996429,248.364838 271.042572,245.605789 
M229.443314,248.073425 
	C231.344406,242.904556 233.245483,237.735703 235.146576,232.566833 
	C234.557419,232.295822 233.968246,232.024826 233.379089,231.753830 
	C228.730713,236.665161 228.804321,244.077103 225.305756,250.244324 
	C224.386505,247.519104 223.669357,245.330353 222.909271,243.156616 
	C222.089813,240.813126 221.387238,238.409760 220.334824,236.173157 
	C219.586838,234.583511 218.343567,233.226929 217.321350,231.766327 
	C216.182678,232.835449 216.102432,233.015671 216.150726,233.149536 
	C218.055862,238.430298 219.866730,243.748932 221.939224,248.963547 
	C222.789307,251.102478 224.207260,253.015686 225.366898,255.031586 
	C226.631744,252.954361 227.896591,250.877151 229.443314,248.073425 
M238.246170,239.630676 
	C238.246399,243.624969 238.122604,247.625504 238.322998,251.609726 
	C238.382507,252.792801 239.353409,253.930023 239.906662,255.088257 
	C240.522522,253.992630 241.615540,252.920044 241.669739,251.797302 
	C241.878189,247.480240 241.966309,243.132370 241.667709,238.825912 
	C241.509018,236.537216 240.465073,234.309891 239.820740,232.054871 
	C239.295822,234.262360 238.770905,236.469833 238.246170,239.630676 
z"/>
<path fill="#0189B5" opacity="1.000000" stroke="none" 
	d="
M95.999680,205.869675 
	C95.999741,164.575424 95.992691,123.761017 96.002998,82.946617 
	C96.007874,63.647823 108.594757,51.006470 127.820480,51.003422 
	C189.958328,50.993576 252.096161,50.992641 314.234009,51.003487 
	C333.437469,51.006840 345.984314,63.665115 345.998627,83.000465 
	C346.006653,93.828766 346.136810,104.660385 345.875793,115.482391 
	C345.828247,117.454216 344.663757,119.995041 343.160339,121.247284 
	C316.424286,143.516891 289.602386,165.684357 262.691315,187.742477 
	C253.150940,195.562393 241.465805,196.035767 230.630920,189.295456 
	C215.096054,179.631302 199.616318,169.877716 184.162048,160.085007 
	C168.015396,149.853607 151.035828,152.259384 138.485641,166.616760 
	C124.689842,182.399094 110.860497,198.152115 95.999672,215.111740 
	C95.999672,211.335693 95.999672,208.842606 95.999680,205.869675 
M168.122955,114.201088 
	C170.293320,115.313728 172.463684,116.426369 174.895004,117.672791 
	C175.485977,117.151970 176.326996,116.410789 177.522644,115.357079 
	C176.267365,114.410248 175.211151,113.613564 174.098343,112.774200 
	C174.914902,111.600723 175.654327,110.721581 176.194046,109.733368 
	C180.461823,101.919357 176.642609,91.802025 169.151459,91.000641 
	C163.408112,90.386230 159.296646,93.884315 158.322067,100.214386 
	C157.153992,107.801392 160.430130,112.882599 168.122955,114.201088 
M194.782089,97.571594 
	C194.727081,100.900848 195.129456,104.330704 194.428497,107.517899 
	C194.065582,109.168030 191.938354,111.149300 190.254532,111.572006 
	C188.794128,111.938622 186.321472,110.746407 185.246796,109.453209 
	C184.250000,108.253723 184.309540,106.014626 184.258484,104.223183 
	C184.135010,99.891800 184.218399,95.554512 184.218399,89.838081 
	C182.327423,91.438477 181.300751,91.902374 181.298523,92.371124 
	C181.272629,97.851936 180.951965,103.389786 181.630234,108.797020 
	C182.173187,113.125443 185.810104,114.350609 189.915588,114.230186 
	C194.176956,114.105179 197.187729,112.081238 197.632538,107.925026 
	C198.161530,102.982391 197.901291,97.945587 197.783325,92.954300 
	C197.766418,92.238861 196.629623,91.549904 196.011108,90.848686 
	C195.601456,91.002457 195.191818,91.156219 194.782166,91.309982 
	C194.782166,93.084824 194.782166,94.859665 194.782089,97.571594 
M202.834656,106.239113 
	C201.927490,108.661133 201.020325,111.083160 200.113159,113.505188 
	C200.582657,113.822891 201.052155,114.140594 201.521667,114.458305 
	C202.969543,112.396049 204.417404,110.333794 206.008865,108.067024 
	C209.999832,108.414810 215.407867,105.932999 216.611130,113.087387 
	C216.690521,113.559372 218.407700,113.755920 220.123978,114.339149 
	C217.236328,106.829811 214.729752,100.185364 212.091400,93.593658 
	C211.717834,92.660278 210.702499,91.983757 209.984192,91.188347 
	C209.177597,92.092110 208.072678,92.867355 207.618027,93.922729 
	C205.978363,97.728951 204.557709,101.629532 202.834656,106.239113 
M276.273102,112.212021 
	C274.787415,103.974915 281.322235,98.542717 283.869843,90.925499 
	C277.438110,92.153358 278.455627,99.084457 274.514496,101.552864 
	C268.393951,91.474159 268.393951,91.474159 265.873901,91.898277 
	C268.727417,98.637993 274.575439,104.318604 273.146606,112.519547 
	C274.165894,112.679764 275.185211,112.839989 276.273102,112.212021 
M256.479492,91.101921 
	C248.012161,91.100281 248.012161,91.100281 246.839233,93.637115 
	C249.150787,93.827095 251.364136,94.009003 253.879349,94.215714 
	C253.879349,99.649513 253.780334,104.768837 253.944855,109.879684 
	C253.989243,111.258591 254.833115,112.611778 255.310013,113.976768 
	C255.867371,112.679031 256.859283,111.396599 256.905640,110.080856 
	C257.090851,104.825607 256.982086,99.560013 256.982086,94.338097 
	C259.725677,93.945686 261.971100,93.624535 264.216522,93.303375 
	C264.204041,92.737556 264.191528,92.171730 264.179047,91.605904 
	C261.927246,91.437973 259.675415,91.270042 256.479492,91.101921 
M222.972214,108.394638 
	C222.972214,110.157524 222.972214,111.920403 222.972214,113.476807 
	C227.957565,113.476807 232.363724,113.476807 236.769897,113.476807 
	C236.802948,112.927559 236.835999,112.378311 236.869049,111.829063 
	C233.374527,111.579964 229.880020,111.330864 226.026001,111.056137 
	C226.026001,105.175545 226.084686,99.569595 225.967743,93.967300 
	C225.948456,93.042976 225.159500,92.134712 224.726227,91.219032 
	C224.142197,92.147850 223.091888,93.057938 223.053665,94.008690 
	C222.874207,98.473328 222.972885,102.949135 222.972214,108.394638 
M243.795151,109.249931 
	C243.794281,104.278023 243.910355,99.301201 243.702164,94.337990 
	C243.655869,93.234093 242.467651,92.178101 241.805206,91.100067 
	C241.272385,92.141991 240.310745,93.171059 240.279053,94.228004 
	C240.120224,99.526649 240.089523,104.836845 240.285034,110.132965 
	C240.333832,111.454590 241.387817,112.739113 241.979797,114.040680 
	C242.584732,112.752487 243.189667,111.464294 243.795151,109.249931 
z"/>
<path fill="#050505" opacity="1.000000" stroke="none" 
	d="
M373.382477,88.445000 
	C379.912384,80.017746 388.515381,78.411812 397.839050,80.489182 
	C407.288940,82.594666 412.955505,89.310890 414.008789,98.624168 
	C415.047882,107.811737 415.251526,117.260719 414.315918,126.441559 
	C413.761932,131.877426 410.291687,137.016083 407.810425,143.075592 
	C409.533936,144.694931 412.271118,147.266632 415.366547,150.174973 
	C412.701324,152.641586 410.184814,154.970551 407.493103,157.461670 
	C406.657623,156.853455 405.790253,156.390457 405.136414,155.719360 
	C400.009552,150.457001 394.716888,146.549332 386.558655,146.098312 
	C377.587982,145.602356 371.745117,139.180847 369.927643,130.484039 
	C366.976624,116.363068 365.698395,102.147621 373.382477,88.445000 
M381.363525,103.197319 
	C381.618835,111.333229 381.397278,119.521957 382.290802,127.587158 
	C382.925934,133.319702 386.817108,136.040237 391.786865,135.986603 
	C396.520569,135.935547 400.481537,133.285736 400.863556,127.794960 
	C401.539551,118.079254 401.546997,108.239197 400.794098,98.531860 
	C400.360504,92.941025 396.148895,90.465820 390.958191,90.753014 
	C385.551788,91.052147 382.998260,94.201302 381.363525,103.197319 
z"/>
<path fill="#060606" opacity="1.000000" stroke="none" 
	d="
M453.954285,79.820587 
	C466.770874,80.410042 474.186157,87.867363 473.993256,99.728546 
	C469.882996,99.728546 465.767670,99.728546 461.334839,99.728546 
	C461.171204,98.583275 461.090973,97.466484 460.843384,96.388107 
	C459.938354,92.445412 457.388641,90.347145 453.381256,90.390266 
	C449.881897,90.427917 447.368256,92.098839 446.408600,95.664810 
	C445.370605,99.521942 447.073975,102.198570 450.309692,103.913887 
	C453.529724,105.620903 456.940735,106.964096 460.239777,108.526405 
	C468.932037,112.642723 475.043335,118.610146 474.849213,129.063293 
	C474.704437,136.858032 470.586243,142.659042 463.235291,145.382233 
	C447.052521,151.377213 431.609406,141.586426 432.308533,125.526703 
	C436.408386,125.526703 440.522247,125.526703 444.832367,125.526703 
	C445.651855,130.488373 446.409271,135.627808 453.077972,136.071426 
	C456.417450,136.293579 459.640228,135.996490 460.999786,132.394592 
	C462.365051,128.777557 462.365143,124.985260 459.175415,122.271011 
	C457.071686,120.480865 454.432251,119.289238 451.954498,117.977264 
	C448.585144,116.193230 444.967621,114.823662 441.764282,112.791344 
	C434.404327,108.121979 431.630402,101.339691 433.518890,93.647346 
	C435.394562,86.007004 441.663147,80.790977 450.005341,79.963501 
	C451.162537,79.848709 452.332733,79.864815 453.954285,79.820587 
z"/>
<path fill="#0D0D0D" opacity="1.000000" stroke="none" 
	d="
M665.023926,182.139465 
	C665.023926,192.250412 665.023926,201.877243 665.023926,211.558609 
	C660.322815,213.028931 657.584045,211.774826 655.794434,207.142563 
	C653.910156,202.265274 651.163879,197.721024 647.965698,193.127090 
	C647.965698,199.243179 647.965698,205.359283 647.965698,211.742065 
	C645.466370,211.742065 643.544739,211.742065 641.330505,211.742065 
	C641.330505,200.639023 641.330505,189.422760 641.330505,178.257904 
	C645.750000,177.020844 648.472778,178.191727 650.221252,182.646957 
	C652.173340,187.621124 654.960205,192.267670 658.366089,196.836380 
	C658.366089,190.651428 658.366089,184.466492 658.366089,178.096649 
	C660.693176,178.096649 662.490234,178.096649 664.706299,178.096649 
	C664.802734,179.177322 664.913330,180.416336 665.023926,182.139465 
z"/>
<path fill="#090909" opacity="1.000000" stroke="none" 
	d="
M453.792297,206.311096 
	C451.351074,201.478622 449.067719,196.991837 446.105103,191.170349 
	C446.105103,198.937531 446.105103,205.171692 446.105103,211.707840 
	C443.793152,211.707840 441.762085,211.707840 439.500427,211.707840 
	C439.500427,200.504211 439.500427,189.423111 439.500427,178.401443 
	C444.060425,176.844696 446.664764,178.224899 448.446655,182.641479 
	C450.514252,187.766006 453.355164,192.578522 456.632172,197.288162 
	C456.632172,191.064880 456.632172,184.841599 456.632172,178.266083 
	C458.803864,178.266083 460.692078,178.266083 462.890015,178.266083 
	C462.890015,189.203705 462.890015,200.275223 462.890015,211.480652 
	C458.044678,213.560196 455.493469,211.082840 453.792297,206.311096 
z"/>
<path fill="#060606" opacity="1.000000" stroke="none" 
	d="
M447.196289,230.246872 
	C455.955963,234.186768 456.934448,242.523804 449.650543,249.996490 
	C450.553467,252.149780 451.506958,254.426910 452.463013,256.702972 
	C453.413147,258.965027 454.365814,261.226044 455.325836,263.507721 
	C449.835358,265.272003 447.138336,263.306641 445.583008,258.242249 
	C444.828613,255.785873 442.495819,253.814285 440.877594,251.623215 
	C440.425201,254.217361 439.901245,256.801910 439.550720,259.409760 
	C439.376465,260.706055 439.520386,262.045135 439.520386,263.682068 
	C437.214844,263.682068 435.153046,263.682068 432.881714,263.682068 
	C432.881714,252.616882 432.881714,241.517410 432.881714,230.153809 
	C437.584747,230.153809 442.185364,230.153809 447.196289,230.246872 
M445.460815,235.977753 
	C443.565521,235.888657 441.670258,235.799561 439.645020,235.704361 
	C439.645020,239.306686 439.645020,242.366653 439.645020,246.493362 
	C442.328003,245.659164 445.808533,245.538803 446.398468,244.171387 
	C447.316742,242.042908 446.271027,239.067108 445.460815,235.977753 
z"/>
<path fill="#0D0D0D" opacity="1.000000" stroke="none" 
	d="
M533.200806,181.422821 
	C533.199890,188.531845 533.302490,195.182480 533.169495,201.828400 
	C533.029419,208.828812 529.201294,212.448013 522.179565,212.526428 
	C515.115051,212.605347 511.092957,209.068924 510.928497,202.152191 
	C510.739319,194.196854 510.884583,186.233566 510.884583,178.157318 
	C513.175415,178.157318 515.258911,178.157318 517.737061,178.157318 
	C517.737061,185.026352 517.551575,191.651978 517.816345,198.259583 
	C517.946106,201.498322 516.005737,206.591461 521.857788,206.652298 
	C528.091858,206.717087 526.046753,201.404984 526.186035,198.015701 
	C526.451294,191.562820 526.262939,185.091324 526.262939,178.032593 
	C528.921143,178.924179 532.813477,174.927658 533.200806,181.422821 
z"/>
<path fill="#070707" opacity="1.000000" stroke="none" 
	d="
M408.065643,211.144104 
	C400.967926,205.164581 399.257782,188.537766 404.785553,181.703690 
	C408.071442,177.641235 412.406281,176.643417 417.356110,177.892365 
	C422.532410,179.198410 425.272156,182.937027 425.829163,187.841644 
	C426.370148,192.604691 426.461975,197.551224 425.811371,202.288132 
	C424.638763,210.826050 417.883392,214.102615 408.065643,211.144104 
M419.515869,198.001328 
	C419.305359,194.377731 419.584442,190.624451 418.673706,187.186340 
	C418.231354,185.516434 415.649384,183.544159 413.873779,183.370865 
	C412.447266,183.231628 409.567078,185.474640 409.428314,186.869171 
	C408.894165,192.236954 408.886383,197.719681 409.414276,203.087585 
	C409.550110,204.469055 412.342346,206.527420 413.948700,206.559692 
	C415.523041,206.591293 417.450226,204.678162 418.632355,203.159256 
	C419.429810,202.134644 419.203339,200.313156 419.515869,198.001328 
z"/>
<path fill="#0D0D0D" opacity="1.000000" stroke="none" 
	d="
M385.551910,261.470581 
	C380.883392,265.216156 376.064850,265.297699 371.237915,263.039703 
	C367.437500,261.261902 365.620117,258.042999 365.998993,253.435196 
	C367.980621,253.435196 369.905609,253.435196 372.023590,253.435196 
	C372.077026,253.484207 372.489685,253.676849 372.524811,253.923279 
	C372.949097,256.900543 374.278870,259.198578 377.593109,258.753113 
	C378.843597,258.584991 380.542236,257.118103 380.907379,255.903748 
	C381.838196,252.807922 379.902527,251.004913 377.137421,249.878815 
	C375.452087,249.192474 373.844666,248.311295 372.215332,247.491592 
	C368.137787,245.440216 365.503174,242.323273 366.310394,237.570419 
	C367.128052,232.756577 370.367767,230.183533 375.213928,229.502625 
	C380.029633,228.825989 384.796326,230.869293 386.637024,234.769333 
	C387.318756,236.213791 387.562714,237.864868 388.097046,239.740097 
	C385.676117,239.740097 383.712250,239.740097 381.534607,239.740097 
	C380.953979,238.648926 380.559814,236.690750 379.546021,236.286469 
	C378.000641,235.670227 376.026520,236.129166 374.234467,236.131546 
	C374.304810,237.874619 373.683167,240.369781 374.589813,241.203949 
	C376.467773,242.931870 379.181122,243.734268 381.510132,244.992828 
	C388.370148,248.699890 389.864868,254.373215 385.551910,261.470581 
z"/>
<path fill="#0F0F0F" opacity="1.000000" stroke="none" 
	d="
M570.847717,235.744812 
	C569.351196,235.780045 568.350769,235.782028 567.358032,235.870316 
	C567.054688,235.897278 566.772400,236.161392 566.422852,236.347610 
	C566.422852,238.592407 566.422852,240.860367 566.422852,243.522842 
	C568.208374,243.619507 569.806274,243.741074 571.406250,243.782928 
	C573.065857,243.826355 574.727417,243.792603 576.787048,243.792603 
	C576.884155,245.476868 576.974182,247.038422 577.097717,249.181198 
	C573.467468,249.181198 570.093811,249.181198 566.479126,249.181198 
	C566.479126,252.341324 566.479126,254.948654 566.479126,258.124878 
	C570.447327,258.124878 574.515869,258.124878 578.811646,258.124878 
	C578.912903,260.278046 578.988525,261.885956 579.076965,263.765900 
	C572.620544,263.765900 566.350281,263.765900 559.759338,263.765900 
	C559.759338,252.743591 559.759338,241.674179 559.759338,230.248718 
	C565.940369,230.248718 572.160706,230.248718 578.707642,230.248718 
	C578.707642,231.790878 578.707642,233.505478 578.707642,235.744720 
	C576.251709,235.744720 573.799255,235.744720 570.847717,235.744812 
z"/>
<path fill="#0A0A0A" opacity="1.000000" stroke="none" 
	d="
M605.668579,230.087509 
	C610.937622,233.331070 611.678711,234.530746 611.861267,239.762299 
	C609.897461,239.762299 607.938232,239.762299 605.646240,239.762299 
	C605.376587,238.947876 605.344788,237.723267 604.728210,237.230835 
	C603.547241,236.287643 602.014832,235.199341 600.664917,235.245407 
	C599.657776,235.279739 597.962158,236.969345 597.916443,237.982452 
	C597.855530,239.333191 598.775391,241.126312 599.857422,242.033493 
	C601.330750,243.268814 603.372681,243.812408 605.139771,244.713470 
	C611.362061,247.886276 613.660461,252.300217 612.050476,257.913330 
	C610.765198,262.394226 606.326416,264.888947 600.495178,264.407776 
	C594.110107,263.880920 591.053650,260.716980 590.246338,253.490875 
	C592.336609,253.490875 594.398010,253.490875 596.696289,253.490875 
	C596.900391,254.239197 596.859253,255.519791 597.461731,256.011200 
	C598.884155,257.171173 600.532593,258.389923 602.251831,258.707977 
	C603.108032,258.866394 605.184021,257.100189 605.188110,256.197723 
	C605.195923,254.464127 604.513428,252.383926 603.383728,251.085983 
	C602.269714,249.806076 600.266174,249.278839 598.621765,248.485916 
	C591.624329,245.111877 589.370483,241.337921 591.087952,235.806747 
	C592.623596,230.861145 598.240601,228.566422 605.668579,230.087509 
z"/>
<path fill="#0A0A0A" opacity="1.000000" stroke="none" 
	d="
M476.570740,201.393127 
	C478.600494,201.186798 480.264404,201.186798 481.902771,201.186798 
	C482.202789,201.372559 482.693451,201.519455 482.711578,201.711029 
	C482.994904,204.709122 484.217438,207.055893 487.553406,206.767899 
	C488.822235,206.658386 490.670410,205.314896 491.032074,204.153229 
	C492.057800,200.858185 490.047821,198.912994 487.100647,197.720200 
	C485.414703,197.037842 483.732300,196.303680 482.153931,195.406921 
	C478.028351,193.062881 475.643829,189.790039 476.759216,184.740112 
	C477.830719,179.888870 481.421204,178.120270 485.775848,177.440216 
	C490.366272,176.723343 495.320221,179.251801 497.015747,183.119705 
	C497.599060,184.450424 497.799683,185.948944 498.262787,187.702927 
	C495.914642,187.702927 493.971954,187.702927 491.575714,187.702927 
	C491.424744,187.311920 491.348175,186.396988 490.851715,185.968185 
	C489.592377,184.880402 488.179382,183.345367 486.761139,183.271500 
	C485.695160,183.215973 483.590332,185.181412 483.625793,186.188156 
	C483.676331,187.625366 485.000458,189.338379 486.256958,190.330124 
	C487.775177,191.528397 489.833984,192.015839 491.583801,192.951263 
	C497.330505,196.023361 499.551239,200.778519 497.808350,206.102249 
	C496.311066,210.675842 491.554962,213.070877 485.560638,212.269928 
	C479.249756,211.426682 476.438293,208.220123 476.570740,201.393127 
z"/>
<path fill="#070707" opacity="1.000000" stroke="none" 
	d="
M608.777588,190.645844 
	C610.119751,186.319748 611.335510,182.373917 612.620850,178.201996 
	C614.661560,178.201996 616.590210,178.201996 619.074097,178.201996 
	C622.506287,189.085312 626.021118,200.230438 629.652466,211.745117 
	C627.151489,211.745117 625.076355,211.745117 622.552429,211.745117 
	C621.963806,209.851730 621.295776,207.702927 620.540283,205.272644 
	C617.755737,205.272644 614.807678,205.272644 611.359070,205.272644 
	C610.764526,207.100174 610.073425,209.224655 609.274536,211.680435 
	C607.146301,211.680435 604.902161,211.680435 602.194458,211.680435 
	C604.357910,204.759872 606.504578,197.892990 608.777588,190.645844 
M613.679932,195.334244 
	C613.454529,196.520508 613.229126,197.706772 612.985291,198.989929 
	C615.212769,198.989929 616.969910,198.989929 619.078674,198.989929 
	C618.076538,195.304077 617.158325,191.926941 616.240173,188.549789 
	C615.968567,188.575211 615.696960,188.600632 615.425354,188.626053 
	C614.909241,190.592911 614.393127,192.559769 613.679932,195.334244 
z"/>
<path fill="#0C0C0C" opacity="1.000000" stroke="none" 
	d="
M694.269897,204.482117 
	C694.877930,198.832947 698.639038,201.059357 701.389771,200.800339 
	C701.371704,207.776367 698.448425,211.377182 692.258362,212.260651 
	C685.404541,213.238876 680.260010,210.434357 679.014893,204.049301 
	C678.074646,199.227829 677.929932,194.128876 678.263672,189.209900 
	C678.766174,181.802261 683.401611,177.422348 689.880615,177.274536 
	C696.775208,177.117279 700.271484,180.460541 701.781677,188.965759 
	C699.694336,188.965759 697.640137,188.965759 695.276550,188.965759 
	C695.076843,188.151184 695.151917,186.712463 694.472290,186.060913 
	C693.188721,184.830383 691.154114,182.988342 690.006348,183.330170 
	C688.175171,183.875580 685.664307,185.859955 685.468933,187.480408 
	C684.877258,192.387848 684.821350,197.463196 685.386780,202.377640 
	C685.946899,207.246719 689.546082,208.079849 694.269897,204.482117 
z"/>
<path fill="#0B0B0B" opacity="1.000000" stroke="none" 
	d="
M540.831848,241.130096 
	C539.765869,238.097244 539.407104,234.825165 535.231995,235.070023 
	C530.969666,235.319977 530.392639,238.592346 530.205017,241.833038 
	C530.003601,245.313049 529.975769,248.824265 530.196899,252.301208 
	C530.388428,255.312317 530.849243,258.502594 534.891785,258.773560 
	C538.798279,259.035339 540.192383,256.680603 540.066650,252.921082 
	C542.401672,252.921082 544.496765,252.921082 546.593384,252.924515 
	C546.621582,259.780731 543.437134,263.542969 536.968445,264.300934 
	C530.180176,265.096405 525.136780,262.056458 524.094604,255.547974 
	C523.291626,250.533859 523.141479,245.263031 523.704834,240.218460 
	C524.520996,232.909225 529.068420,229.164612 535.568481,229.283295 
	C542.200195,229.404388 545.730774,232.947525 546.951355,241.252777 
	C545.004517,241.252777 543.108582,241.252777 540.831848,241.130096 
z"/>
<path fill="#090909" opacity="1.000000" stroke="none" 
	d="
M389.297729,185.747375 
	C389.573029,187.047958 389.723053,187.988403 389.908875,189.153152 
	C387.626831,189.153152 385.665009,189.153152 383.346222,189.153152 
	C383.200073,188.488541 383.283966,187.489838 382.828583,187.052139 
	C381.335754,185.617294 379.560699,183.262039 378.056488,183.377411 
	C376.385040,183.505630 373.817963,185.772842 373.531708,187.434525 
	C372.806671,191.643494 372.985474,196.038986 373.102020,200.351669 
	C373.185181,203.427597 373.803802,206.521667 377.830292,206.779221 
	C381.791107,207.032532 382.974152,204.464020 383.043304,200.888641 
	C385.339386,200.888641 387.428894,200.888641 389.523163,200.888641 
	C389.334839,208.116470 386.286987,211.630554 379.730408,212.326401 
	C372.881592,213.053268 368.001801,210.128082 366.962311,203.446762 
	C366.134247,198.124298 366.116943,192.505005 366.819427,187.159348 
	C367.651855,180.825104 371.735535,177.656357 377.563141,177.297089 
	C383.179779,176.950821 386.761658,179.446930 389.297729,185.747375 
z"/>
<path fill="#090909" opacity="1.000000" stroke="none" 
	d="
M486.984100,245.065338 
	C485.128052,251.487000 483.349945,257.511261 481.503235,263.767944 
	C479.252014,263.767944 476.978729,263.767944 474.369965,263.767944 
	C471.192871,252.780197 467.991302,241.707809 464.676025,230.242142 
	C467.192322,230.242142 469.394745,230.242142 471.980225,230.242142 
	C473.774658,237.519562 475.607483,244.952774 477.440338,252.385986 
	C477.757507,252.410355 478.074707,252.434738 478.391876,252.459122 
	C480.234558,245.032593 482.077240,237.606079 483.931152,230.134277 
	C486.400299,230.134277 488.668945,230.134277 491.276184,230.134277 
	C489.814240,235.176117 488.438141,239.922012 486.984100,245.065338 
z"/>
<path fill="#080808" opacity="1.000000" stroke="none" 
	d="
M407.852356,238.913025 
	C407.910858,240.695404 407.969757,241.997818 408.049683,243.765930 
	C411.459930,243.765930 414.697906,243.765930 418.123596,243.765930 
	C418.123596,245.683426 418.123596,247.125488 418.123596,249.077911 
	C414.834106,249.077911 411.601532,249.077911 408.121948,249.077911 
	C408.121948,252.310013 408.121948,255.045105 408.121948,258.095490 
	C411.976501,258.095490 415.748596,258.095490 419.920074,258.095490 
	C419.920074,260.108032 419.920074,261.818329 419.920074,263.776306 
	C413.767914,263.776306 407.542633,263.776306 401.113190,263.776306 
	C401.113190,252.541245 401.113190,241.470871 401.113190,230.155762 
	C407.467224,230.155762 413.691864,230.155762 420.118652,230.155762 
	C420.118652,231.919449 420.118652,233.520996 420.118652,235.722916 
	C416.893158,235.722916 413.771820,235.498367 410.716003,235.847351 
	C409.676697,235.966034 408.802429,237.529663 407.852356,238.913025 
z"/>
<path fill="#111111" opacity="1.000000" stroke="none" 
	d="
M575.263062,177.892395 
	C582.026001,177.892365 588.320801,177.892365 594.819702,177.892365 
	C594.819702,179.845261 594.819702,181.446335 594.819702,183.572113 
	C592.277039,183.572113 589.720581,183.572113 586.625183,183.572113 
	C586.625183,193.300888 586.625183,202.527100 586.625183,211.884247 
	C584.114075,211.884247 582.144470,211.884247 579.841125,211.884247 
	C579.841125,202.686218 579.841125,193.591812 579.841125,183.979004 
	C576.973389,183.835464 574.404968,183.706894 571.539124,183.563446 
	C571.469055,180.743134 569.624756,177.406967 575.263062,177.892395 
z"/>
<path fill="#060606" opacity="1.000000" stroke="none" 
	d="
M715.164856,185.853546 
	C714.085144,183.208817 713.143677,180.924088 712.197205,178.627243 
	C718.999268,177.091034 718.994507,177.092667 721.183289,183.424088 
	C722.152710,186.228378 723.145752,189.024506 724.462524,192.777588 
	C725.545898,189.710388 726.335083,187.504623 727.103821,185.291779 
	C727.911743,182.965912 728.700134,180.633240 729.555054,178.133911 
	C731.915833,178.133911 734.199402,178.133911 736.820312,178.133911 
	C733.273865,189.210144 725.406738,199.032867 728.382690,211.770859 
	C725.642883,211.770859 723.572876,211.770859 720.785889,211.770859 
	C722.558167,202.485519 719.268982,194.267487 715.164856,185.853546 
z"/>
<path fill="#111111" opacity="1.000000" stroke="none" 
	d="
M554.944946,206.191162 
	C558.584106,206.239288 561.729065,206.239288 565.455444,206.239288 
	C565.564453,208.137604 565.661316,209.824219 565.773865,211.784393 
	C559.294739,211.784393 553.201538,211.784393 546.874573,211.784393 
	C546.874573,200.694595 546.874573,189.609848 546.874573,178.207977 
	C548.935669,178.207977 550.995422,178.207977 553.561584,178.207977 
	C553.561584,185.809494 553.508667,193.413452 553.602051,201.015610 
	C553.623047,202.727966 554.154419,204.434067 554.944946,206.191162 
z"/>
<path fill="#090909" opacity="1.000000" stroke="none" 
	d="
M503.049438,246.001648 
	C503.049438,240.533051 503.049438,235.563339 503.049438,230.251740 
	C505.288818,230.251740 507.340546,230.251740 509.674683,230.251740 
	C509.674683,241.206879 509.674683,252.272507 509.674683,263.678711 
	C507.708435,263.678711 505.657166,263.678711 503.049438,263.678711 
	C503.049438,258.028656 503.049438,252.264603 503.049438,246.001648 
z"/>
<path fill="#EEEEEE" opacity="1.000000" stroke="none" 
	d="
M161.733627,253.310501 
	C160.536026,251.582199 159.621658,250.111801 158.707306,248.641403 
	C159.049805,248.211563 159.392303,247.781708 159.734787,247.351868 
	C161.287003,248.231537 162.770432,249.281464 164.410385,249.943909 
	C166.113983,250.632034 167.958130,251.209381 169.763474,251.283539 
	C170.420319,251.310532 171.834961,249.124176 171.728271,249.005646 
	C170.598404,247.750198 169.254044,246.679276 167.914551,245.626495 
	C167.544662,245.335770 166.988235,245.290070 166.528091,245.105362 
	C162.897018,243.647736 159.067322,242.157104 159.993271,237.170776 
	C160.727249,233.218231 163.982483,232.148727 167.498077,232.000473 
	C172.071579,231.807617 175.641846,233.193405 176.667816,239.757919 
	C174.377350,238.682968 172.899948,237.867554 171.334915,237.289398 
	C169.766342,236.709900 168.125809,236.161560 166.483795,236.037872 
	C165.946381,235.997406 164.687439,237.797958 164.810547,237.960709 
	C165.723267,239.167267 166.898071,240.176498 168.001083,241.236771 
	C168.114258,241.345581 168.293915,241.388916 168.447174,241.451797 
	C175.619507,244.394882 177.801758,247.220093 176.118378,251.385468 
	C174.471237,255.461197 168.195389,256.432709 161.733627,253.310501 
z"/>
<path fill="#D4D4D4" opacity="1.000000" stroke="none" 
	d="
M202.085464,246.409531 
	C201.743271,248.570999 201.902115,250.433334 201.595566,252.215607 
	C201.421341,253.228500 200.485733,254.110428 199.893005,255.051346 
	C199.371918,254.207123 198.415054,253.371170 198.398895,252.517395 
	C198.273514,245.896912 198.329712,239.272980 198.329712,232.746048 
	C206.860733,231.103607 211.985092,232.197113 213.537338,236.045425 
	C215.153046,240.051086 213.655487,243.149094 210.073730,245.377457 
	C211.743393,248.526077 213.350647,251.556992 214.957886,254.587891 
	C214.550812,254.934372 214.143738,255.280853 213.736649,255.627335 
	C212.440247,254.226135 210.924591,252.968094 209.895554,251.392303 
	C208.058578,248.579269 207.206985,244.610001 202.085464,246.409531 
M201.791367,235.698151 
	C201.791367,238.111298 201.791367,240.524460 201.791367,243.178574 
	C205.673325,242.739304 210.626038,244.776978 210.728607,239.115356 
	C210.832535,233.379227 205.826965,235.259644 201.791367,235.698151 
z"/>
<path fill="#D8D8D8" opacity="1.000000" stroke="none" 
	d="
M183.427216,248.010864 
	C182.895935,251.639435 184.289581,252.601410 187.307831,252.403931 
	C189.840790,252.238205 192.408585,252.604935 194.960938,252.735901 
	C194.939453,253.323090 194.917953,253.910263 194.896469,254.497452 
	C190.170441,254.497452 185.444412,254.497452 180.465347,254.497452 
	C180.465347,247.302490 180.465347,239.938568 180.465347,232.527893 
	C185.391510,232.527893 190.021500,232.527893 194.651489,232.527893 
	C194.721313,233.149078 194.791153,233.770264 194.860977,234.391449 
	C191.132462,234.683914 187.403946,234.976395 183.559357,235.277969 
	C183.559357,237.417770 183.559357,239.386368 183.559357,241.938843 
	C186.778442,241.938843 189.975662,241.938843 193.172882,241.938843 
	C193.249329,242.615463 193.325760,243.292068 193.402191,243.968689 
	C191.527466,244.198013 189.654709,244.445343 187.777435,244.651688 
	C185.833511,244.865356 183.057068,243.774597 183.427216,248.010864 
z"/>
<path fill="#E5E5E5" opacity="1.000000" stroke="none" 
	d="
M263.276062,248.046753 
	C263.072906,252.990540 260.291931,255.127945 255.602493,255.250824 
	C250.630722,255.381058 247.508621,252.867569 246.827515,248.211517 
	C246.313919,244.700623 246.335770,240.846909 247.258942,237.456070 
	C248.460770,233.041748 252.279938,231.513504 256.738159,232.004639 
	C260.926086,232.465973 263.085083,234.942795 263.872742,240.685120 
	C261.912170,239.029205 261.068970,238.166229 260.084015,237.518936 
	C258.427979,236.430664 256.492767,234.456268 255.021271,234.728226 
	C253.158142,235.072617 250.638474,237.032990 250.195175,238.757416 
	C249.403702,241.836319 249.396576,245.399658 250.164490,248.486023 
	C250.595627,250.218918 253.083069,252.229538 254.930573,252.572708 
	C256.427948,252.850861 258.366028,250.848495 260.083282,249.815460 
	C261.076172,249.218140 262.018921,248.537369 263.276062,248.046753 
z"/>
<path fill="#E2E2E2" opacity="1.000000" stroke="none" 
	d="
M271.019501,246.088226 
	C270.996429,248.364838 270.996429,250.159012 270.996429,252.033401 
	C275.080292,252.360489 278.787811,252.657425 282.495361,252.954361 
	C282.417969,253.537857 282.340576,254.121338 282.263184,254.704834 
	C277.602661,254.704834 272.942139,254.704834 268.118225,254.704834 
	C268.118225,247.268524 268.118225,239.898651 268.118225,232.424454 
	C272.895660,232.424454 277.413300,232.424454 281.930969,232.424454 
	C282.012848,233.013245 282.094727,233.602051 282.176605,234.190842 
	C278.712708,234.545181 275.248779,234.899521 271.360291,235.297287 
	C271.360291,237.162491 271.360291,239.341263 271.360291,242.166016 
	C274.520874,242.166016 277.684570,242.166016 280.848236,242.166016 
	C280.898895,242.676712 280.949554,243.187408 281.000214,243.698105 
	C277.681000,244.334000 274.361786,244.969894 271.019501,246.088226 
z"/>
<path fill="#E5E5E5" opacity="1.000000" stroke="none" 
	d="
M229.302368,248.436676 
	C227.896591,250.877151 226.631744,252.954361 225.366898,255.031586 
	C224.207260,253.015686 222.789307,251.102478 221.939224,248.963547 
	C219.866730,243.748932 218.055862,238.430298 216.150726,233.149536 
	C216.102432,233.015671 216.182678,232.835449 217.321350,231.766327 
	C218.343567,233.226929 219.586838,234.583511 220.334824,236.173157 
	C221.387238,238.409760 222.089813,240.813126 222.909271,243.156616 
	C223.669357,245.330353 224.386505,247.519104 225.305756,250.244324 
	C228.804321,244.077103 228.730713,236.665161 233.379089,231.753830 
	C233.968246,232.024826 234.557419,232.295822 235.146576,232.566833 
	C233.245483,237.735703 231.344406,242.904556 229.302368,248.436676 
z"/>
<path fill="#BFBFBF" opacity="1.000000" stroke="none" 
	d="
M238.246078,239.153992 
	C238.770905,236.469833 239.295822,234.262360 239.820740,232.054871 
	C240.465073,234.309891 241.509018,236.537216 241.667709,238.825912 
	C241.966309,243.132370 241.878189,247.480240 241.669739,251.797302 
	C241.615540,252.920044 240.522522,253.992630 239.906677,255.088257 
	C239.353409,253.930023 238.382507,252.792801 238.322998,251.609726 
	C238.122604,247.625504 238.246399,243.624969 238.246078,239.153992 
z"/>
<path fill="#F0F8FA" opacity="1.000000" stroke="none" 
	d="
M167.729004,114.197151 
	C160.430130,112.882599 157.153992,107.801392 158.322067,100.214386 
	C159.296646,93.884315 163.408112,90.386230 169.151459,91.000641 
	C176.642609,91.802025 180.461823,101.919357 176.194046,109.733368 
	C175.654327,110.721581 174.914902,111.600723 174.098343,112.774200 
	C175.211151,113.613564 176.267365,114.410248 177.522644,115.357079 
	C176.326996,116.410789 175.485977,117.151970 174.895004,117.672791 
	C172.463684,116.426369 170.293320,115.313728 167.729004,114.197151 
M172.424484,98.405174 
	C170.693954,97.235146 168.712509,94.897003 167.298569,95.200737 
	C165.655777,95.553627 163.743408,98.057587 163.340210,99.928017 
	C162.815414,102.362572 163.239426,105.240845 164.084473,107.635498 
	C164.540146,108.926796 166.742447,110.377678 168.125397,110.346962 
	C169.500595,110.316414 171.645004,108.752342 172.019150,107.449280 
	C172.766205,104.847580 172.532837,101.964363 172.424484,98.405174 
z"/>
<path fill="#E7F4F8" opacity="1.000000" stroke="none" 
	d="
M194.782135,97.103050 
	C194.782166,94.859665 194.782166,93.084824 194.782166,91.309982 
	C195.191818,91.156219 195.601456,91.002457 196.011108,90.848686 
	C196.629623,91.549904 197.766418,92.238861 197.783325,92.954300 
	C197.901291,97.945587 198.161530,102.982391 197.632538,107.925026 
	C197.187729,112.081238 194.176956,114.105179 189.915588,114.230186 
	C185.810104,114.350609 182.173187,113.125443 181.630234,108.797020 
	C180.951965,103.389786 181.272629,97.851936 181.298523,92.371124 
	C181.300751,91.902374 182.327423,91.438477 184.218399,89.838081 
	C184.218399,95.554512 184.135010,99.891800 184.258484,104.223183 
	C184.309540,106.014626 184.250000,108.253723 185.246796,109.453209 
	C186.321472,110.746407 188.794128,111.938622 190.254532,111.572006 
	C191.938354,111.149300 194.065582,109.168030 194.428497,107.517899 
	C195.129456,104.330704 194.727081,100.900848 194.782135,97.103050 
z"/>
<path fill="#EAF5F9" opacity="1.000000" stroke="none" 
	d="
M202.944489,105.866791 
	C204.557709,101.629532 205.978363,97.728951 207.618027,93.922729 
	C208.072678,92.867355 209.177597,92.092110 209.984192,91.188354 
	C210.702499,91.983757 211.717834,92.660278 212.091400,93.593658 
	C214.729752,100.185364 217.236328,106.829811 220.123978,114.339149 
	C218.407700,113.755920 216.690521,113.559372 216.611130,113.087387 
	C215.407867,105.932999 209.999832,108.414810 206.008865,108.067024 
	C204.417404,110.333794 202.969543,112.396049 201.521667,114.458305 
	C201.052155,114.140594 200.582657,113.822891 200.113159,113.505188 
	C201.020325,111.083160 201.927490,108.661133 202.944489,105.866791 
M212.436020,101.892731 
	C211.706757,100.001602 210.977509,98.110466 209.817032,95.101028 
	C208.341476,99.338974 207.310822,102.299171 206.173645,105.565262 
	C208.936722,105.565262 211.032303,105.565262 213.445206,105.565262 
	C213.183395,104.389389 212.978165,103.467628 212.436020,101.892731 
z"/>
<path fill="#E7F4F8" opacity="1.000000" stroke="none" 
	d="
M276.238800,112.606110 
	C275.185211,112.839989 274.165894,112.679764 273.146606,112.519547 
	C274.575439,104.318604 268.727417,98.637993 265.873901,91.898277 
	C268.393951,91.474159 268.393951,91.474159 274.515930,101.554169 
	C278.455627,99.084457 277.438110,92.153358 283.869843,90.925499 
	C281.322235,98.542717 274.787415,103.974915 276.238800,112.606110 
z"/>
<path fill="#E7F4F8" opacity="1.000000" stroke="none" 
	d="
M256.951538,91.102020 
	C259.675415,91.270042 261.927246,91.437973 264.179047,91.605904 
	C264.191528,92.171730 264.204041,92.737556 264.216522,93.303375 
	C261.971100,93.624535 259.725677,93.945686 256.982086,94.338097 
	C256.982086,99.560013 257.090851,104.825607 256.905640,110.080856 
	C256.859283,111.396599 255.867371,112.679031 255.309998,113.976776 
	C254.833115,112.611778 253.989243,111.258591 253.944855,109.879684 
	C253.780334,104.768837 253.879349,99.649513 253.879349,94.215714 
	C251.364136,94.009003 249.150787,93.827095 246.839233,93.637115 
	C248.012161,91.100281 248.012161,91.100281 256.951538,91.102020 
z"/>
<path fill="#F0F8FA" opacity="1.000000" stroke="none" 
	d="
M222.972229,107.907799 
	C222.972885,102.949135 222.874207,98.473328 223.053665,94.008690 
	C223.091888,93.057938 224.142197,92.147850 224.726227,91.219025 
	C225.159500,92.134712 225.948456,93.042976 225.967743,93.967300 
	C226.084686,99.569595 226.026001,105.175545 226.026001,111.056137 
	C229.880020,111.330864 233.374527,111.579964 236.869049,111.829063 
	C236.835999,112.378311 236.802948,112.927559 236.769897,113.476807 
	C232.363724,113.476807 227.957565,113.476807 222.972214,113.476807 
	C222.972214,111.920403 222.972214,110.157524 222.972229,107.907799 
z"/>
<path fill="#C0E1EC" opacity="1.000000" stroke="none" 
	d="
M243.794876,109.713013 
	C243.189667,111.464294 242.584732,112.752487 241.979797,114.040680 
	C241.387817,112.739113 240.333832,111.454590 240.285034,110.132965 
	C240.089523,104.836845 240.120224,99.526649 240.279053,94.228004 
	C240.310745,93.171059 241.272385,92.141991 241.805206,91.100067 
	C242.467651,92.178101 243.655869,93.234093 243.702164,94.337990 
	C243.910355,99.301201 243.794281,104.278023 243.794876,109.713013 
z"/>
<path fill="#FBFBFB" opacity="1.000000" stroke="none" 
	d="
M381.460205,102.772255 
	C382.998260,94.201302 385.551788,91.052147 390.958191,90.753014 
	C396.148895,90.465820 400.360504,92.941025 400.794098,98.531860 
	C401.546997,108.239197 401.539551,118.079254 400.863556,127.794960 
	C400.481537,133.285736 396.520569,135.935547 391.786865,135.986603 
	C386.817108,136.040237 382.925934,133.319702 382.290802,127.587158 
	C381.397278,119.521957 381.618835,111.333229 381.460205,102.772255 
z"/>
<path fill="#E5E5E5" opacity="1.000000" stroke="none" 
	d="
M445.759247,236.214081 
	C446.271027,239.067108 447.316742,242.042908 446.398468,244.171387 
	C445.808533,245.538803 442.328003,245.659164 439.645020,246.493362 
	C439.645020,242.366653 439.645020,239.306686 439.645020,235.704361 
	C441.670258,235.799561 443.565521,235.888657 445.759247,236.214081 
z"/>
<path fill="#F2F2F2" opacity="1.000000" stroke="none" 
	d="
M419.475372,198.424713 
	C419.203339,200.313156 419.429810,202.134644 418.632355,203.159256 
	C417.450226,204.678162 415.523041,206.591293 413.948700,206.559692 
	C412.342346,206.527420 409.550110,204.469055 409.414276,203.087585 
	C408.886383,197.719681 408.894165,192.236954 409.428314,186.869171 
	C409.567078,185.474640 412.447266,183.231628 413.873779,183.370865 
	C415.649384,183.544159 418.231354,185.516434 418.673706,187.186340 
	C419.584442,190.624451 419.305359,194.377731 419.475372,198.424713 
z"/>
<path fill="#E5E5E5" opacity="1.000000" stroke="none" 
	d="
M613.778442,194.930435 
	C614.393127,192.559769 614.909241,190.592911 615.425354,188.626053 
	C615.696960,188.600632 615.968567,188.575211 616.240173,188.549789 
	C617.158325,191.926941 618.076538,195.304077 619.078674,198.989929 
	C616.969910,198.989929 615.212769,198.989929 612.985291,198.989929 
	C613.229126,197.706772 613.454529,196.520508 613.778442,194.930435 
z"/>
<path fill="#010101" opacity="1.000000" stroke="none" 
	d="
M202.125900,235.372040 
	C205.826965,235.259644 210.832535,233.379227 210.728607,239.115356 
	C210.626038,244.776978 205.673325,242.739304 201.791367,243.178574 
	C201.791367,240.524460 201.791367,238.111298 202.125900,235.372040 
z"/>
<path fill="#0C8EB8" opacity="1.000000" stroke="none" 
	d="
M172.564423,98.801292 
	C172.532837,101.964363 172.766205,104.847580 172.019150,107.449280 
	C171.645004,108.752342 169.500595,110.316414 168.125397,110.346962 
	C166.742447,110.377678 164.540146,108.926796 164.084473,107.635498 
	C163.239426,105.240845 162.815414,102.362572 163.340210,99.928017 
	C163.743408,98.057587 165.655777,95.553627 167.298569,95.200737 
	C168.712509,94.897003 170.693954,97.235146 172.564423,98.801292 
z"/>
<path fill="#2098BE" opacity="1.000000" stroke="none" 
	d="
M212.604477,102.219299 
	C212.978165,103.467628 213.183395,104.389389 213.445206,105.565262 
	C211.032303,105.565262 208.936722,105.565262 206.173645,105.565262 
	C207.310822,102.299171 208.341476,99.338974 209.817032,95.101028 
	C210.977509,98.110466 211.706757,100.001602 212.604477,102.219299 
z"/>
</svg>